<svg width="56" height="56" viewBox="0 0 56 56" fill="none" xmlns="http://www.w3.org/2000/svg">
<path fill-rule="evenodd" clip-rule="evenodd" d="M22.0689 0.186839C20.5401 0.729043 19.5885 2.33904 19.5883 4.3833C19.5882 7.26977 21.3901 9.5396 23.6889 9.54863C26.5796 9.56001 28.2333 5.83772 26.7642 2.6261C25.826 0.575174 23.8574 -0.447608 22.0689 0.186839ZM31.3388 0.402595C30.0157 1.05955 29.1239 2.40603 28.81 4.21974C28.6456 5.16978 28.7755 6.3654 29.1358 7.21744C30.3487 10.0857 33.7421 10.349 35.5138 7.71215C36.2108 6.67471 36.4908 5.57513 36.432 4.10644C36.392 3.10367 36.3238 2.81334 35.9528 2.06493C35.0093 0.161325 33.1634 -0.503739 31.3388 0.402595ZM23.716 3.1076C24.4465 3.86569 24.7 5.30455 24.264 6.21795C23.9973 6.77651 23.7138 6.87856 23.2933 6.56716C22.7908 6.19492 22.4878 5.58952 22.405 4.79283C22.3166 3.94223 22.3976 3.56279 22.767 3.09608C23.1148 2.65659 23.2833 2.65855 23.716 3.1076ZM33.3986 3.27207C33.6721 3.67087 33.7045 3.84031 33.6518 4.60167C33.5861 5.55275 33.3081 6.16011 32.7486 6.57449C32.0945 7.05912 31.5803 6.40099 31.5803 5.07924C31.5803 4.32232 31.8557 3.60584 32.3399 3.10354C32.7747 2.65227 32.9977 2.68786 33.3986 3.27207ZM14.3416 7.02366C13.4208 7.50607 12.8238 8.31833 12.5348 9.48216C12.2605 10.5874 12.4159 11.7796 12.995 13.0096C14.5368 16.2842 18.3346 16.8202 19.7217 13.9591C20.2335 12.9033 20.3394 11.962 20.074 10.826C19.5146 8.43177 17.9146 6.84219 15.928 6.7069C15.1608 6.65469 14.9752 6.69172 14.3416 7.02366ZM39.1371 6.91206C38.2277 7.2245 37.4334 7.87897 36.8214 8.82024C35.235 11.2598 35.7032 14.3674 37.8244 15.4766C38.5604 15.8616 39.8417 15.8612 40.6946 15.4759C41.4931 15.1149 42.5188 14.095 42.967 13.216C43.4335 12.3007 43.7309 10.8463 43.622 10.0117C43.431 8.54678 42.5051 7.26794 41.3528 6.87765C40.5774 6.61505 39.9741 6.62447 39.1371 6.91206ZM16.2841 9.68523C17.1689 10.2214 17.6826 12.1395 17.1246 12.8242C16.8964 13.1045 16.8694 13.1079 16.4768 12.9061C16.0543 12.6889 15.69 12.2432 15.4147 11.6061C15.1825 11.0687 15.2119 9.87625 15.4635 9.62622C15.7262 9.36519 15.7599 9.36768 16.2841 9.68523ZM40.5903 9.71153C41.2213 10.6069 40.2816 12.9534 39.2921 12.9534C38.2649 12.9534 38.6469 10.4157 39.7828 9.69255C40.3101 9.35682 40.341 9.3576 40.5903 9.71153ZM25.7055 11.2497C21.8898 12.2439 18.8701 15.8418 19.1056 19.1131C19.3289 22.2143 22.1991 24.1263 27.0654 24.4157C31.6164 24.6863 35.251 23.3119 36.4645 20.8619C38.1956 17.367 35.0521 12.4529 30.3154 11.2488C28.9872 10.9112 27.003 10.9116 25.7055 11.2497ZM29.5343 13.9387C31.8407 14.5358 33.859 16.4828 34.1573 18.3983C34.4971 20.5809 31.3106 21.9332 26.6753 21.5737C23.4594 21.3242 21.6284 20.1081 21.8946 18.3983C22.1888 16.5091 24.1974 14.5503 26.461 13.9453C27.399 13.6946 28.5814 13.6921 29.5343 13.9387ZM2.61896 17.2374C2.23549 17.3716 1.7438 17.7257 1.225 18.241C-0.0781307 19.5358 -0.0263953 19.1329 0.0157303 27.6837L0.0519322 35L0.380512 35.6396C0.76912 36.3959 1.17985 36.7859 8.45691 43.3084L13.9309 48.215L13.9356 51.5252C13.9393 54.1994 13.978 54.9081 14.1369 55.2135C14.552 56.0111 14.4742 56 19.6124 56C24.1459 56 24.316 55.991 24.6482 55.7312C24.8372 55.5835 25.056 55.2449 25.1344 54.9789C25.232 54.6479 25.2641 51.9154 25.2363 46.3148L25.1957 38.1343L24.7747 37.2845C24.3963 36.5209 23.9321 36.0372 20.1944 32.5118C17.9069 30.3542 15.7839 28.4567 15.4765 28.2951C13.6168 27.3176 11.26 27.868 10.0936 29.5522L9.87944 29.8615L9.15462 29.3581L8.42966 28.8546L8.38754 24.5349L8.34541 20.215L7.99248 19.4666C7.53015 18.4864 6.6259 17.622 5.70374 17.2791C4.82792 16.9533 3.48254 16.9351 2.61896 17.2374ZM50.471 17.209C49.4934 17.5698 48.6676 18.3159 48.1673 19.2904L47.7065 20.1878L47.6657 24.5202L47.6249 28.8528L46.8988 29.3571L46.1725 29.8615L45.9583 29.5522C44.7917 27.8677 42.439 27.3184 40.5731 28.2951C40.2646 28.4567 38.1411 30.3551 35.8542 32.5138C32.1233 36.0356 31.6532 36.5258 31.2764 37.2865L30.8563 38.1343L30.8156 46.3148C30.7878 51.9154 30.8199 54.6479 30.9175 54.9789C30.996 55.2449 31.2147 55.5835 31.4038 55.7312C31.7359 55.991 31.906 56 36.4395 56C40.5644 56 41.1686 55.9742 41.4381 55.7866C42.0434 55.3653 42.1112 54.9347 42.1191 51.4575L42.1265 48.215L47.597 43.3084C54.8991 36.7589 55.2841 36.3932 55.6714 35.6396L56 35V27.4767V19.9534L55.6898 19.3646C55.2636 18.5555 54.5456 17.8362 53.7621 17.4338C52.9433 17.0131 51.305 16.9012 50.471 17.209ZM4.8582 19.9749C5.06238 20.0948 5.29367 20.3331 5.37226 20.5045C5.46586 20.7088 5.51523 22.3343 5.51536 25.2258C5.51549 29.1638 5.54011 29.6841 5.74573 30.0888C5.90673 30.4058 6.48069 30.8974 7.6556 31.7243C9.22202 32.8268 9.36051 32.9596 9.70857 33.6916C10.0232 34.3533 10.4625 34.8365 12.5047 36.7665C16.4575 40.5022 16.3717 40.4299 16.8614 40.4294C17.8582 40.4284 18.5781 39.4917 18.2661 38.6021C18.1865 38.3752 16.9809 37.145 15.2345 35.5086C13.6398 34.0143 12.2776 32.6415 12.2074 32.4581C11.8737 31.5855 12.5896 30.6169 13.5682 30.6169C14.0372 30.6169 14.1971 30.7106 14.9732 31.4403C15.4549 31.8931 17.1227 33.461 18.6793 34.9244C20.236 36.388 21.7023 37.7936 21.9375 38.0481L22.3653 38.5109V45.8817V53.2523H19.6008H16.8364V50.4588C16.8364 48.7209 16.7801 47.505 16.6877 47.2414C16.5785 46.9298 14.7322 45.1922 9.71673 40.6805C3.93052 35.4755 2.88264 34.4788 2.81656 34.1175C2.77364 33.8833 2.75613 30.7391 2.77746 27.1305C2.81511 20.7822 2.82498 20.5599 3.07971 20.2786C3.57337 19.7335 4.25014 19.618 4.8582 19.9749ZM52.8936 20.2081L53.2355 20.5479L53.2745 27.1198C53.2958 30.7342 53.2783 33.8832 53.2355 34.1173C53.1696 34.4779 52.1161 35.4808 46.3319 40.6898C41.4083 45.1237 39.4657 46.9522 39.3609 47.2509C39.2724 47.5031 39.2156 48.7589 39.2156 50.4588V53.2523H36.4511H33.6866V45.8817V38.5109L34.1144 38.0476C34.3498 37.7928 35.7863 36.4165 37.3068 34.9892C38.8272 33.562 40.4945 31.9942 41.0116 31.5055C41.854 30.7095 42.0073 30.6169 42.4825 30.6169C43.4643 30.6169 44.1785 31.585 43.8431 32.4616C43.7721 32.6473 42.4091 34.0224 40.8141 35.5175C39.0962 37.128 37.8611 38.3874 37.784 38.6075C37.4753 39.4878 38.1965 40.4284 39.1812 40.4294C39.6766 40.4301 39.8901 40.2515 43.5486 36.7782C45.6038 34.8271 46.0297 34.3559 46.3469 33.6834C46.6971 32.9409 46.8241 32.8184 48.3327 31.7685C49.2192 31.1516 50.0629 30.5164 50.2077 30.3568C50.458 30.0808 50.4743 29.8329 50.5368 25.3371C50.573 22.7358 50.6485 20.5173 50.7045 20.407C51.06 19.7071 52.2779 19.5964 52.8936 20.2081Z" fill="#666459"/>
</svg>
