<svg width="40" height="51" viewBox="0 0 40 51" fill="none" xmlns="http://www.w3.org/2000/svg">
<circle cx="20" cy="20" r="20" fill="#FF4343"/>
<path d="M20 51L33.8564 34.5H6.14359L20 51Z" fill="#FF4343"/>
<path d="M16.3077 24.774C16.3077 25.0636 16.2265 25.3467 16.0743 25.5875C15.9222 25.8283 15.706 26.016 15.4529 26.1268C15.1999 26.2376 14.9215 26.2666 14.653 26.2101C14.3844 26.1536 14.1376 26.0142 13.944 25.8094C13.7504 25.6046 13.6185 25.3437 13.5651 25.0597C13.5116 24.7756 13.5391 24.4812 13.6439 24.2137C13.7487 23.9461 13.9261 23.7174 14.1538 23.5565C14.3815 23.3956 14.6492 23.3098 14.9231 23.3098C15.2903 23.3098 15.6425 23.464 15.9021 23.7386C16.1618 24.0132 16.3077 24.3857 16.3077 24.774ZM25.0769 23.3098C24.8031 23.3098 24.5354 23.3956 24.3077 23.5565C24.08 23.7174 23.9025 23.9461 23.7977 24.2137C23.6929 24.4812 23.6655 24.7756 23.7189 25.0597C23.7723 25.3437 23.9042 25.6046 24.0979 25.8094C24.2915 26.0142 24.5382 26.1536 24.8068 26.2101C25.0754 26.2666 25.3538 26.2376 25.6068 26.1268C25.8598 26.016 26.076 25.8283 26.2282 25.5875C26.3803 25.3467 26.4615 25.0636 26.4615 24.774C26.4615 24.3857 26.3157 24.0132 26.056 23.7386C25.7963 23.464 25.4441 23.3098 25.0769 23.3098ZM32 13.9523V24.2859C32 30.7451 26.6168 36 20 36C13.3832 36 8 30.7451 8 24.2859V13.9523C8.00003 13.5662 8.10832 13.1888 8.31119 12.8677C8.51405 12.5467 8.80236 12.2965 9.13968 12.1487C9.477 12.001 9.84818 11.9623 10.2063 12.0376C10.5644 12.1129 10.8933 12.2989 11.1515 12.5719L13.1393 14.6741C14.0123 14.083 14.9518 13.61 15.936 13.2662C15.9976 13.2374 16.0621 13.2158 16.1282 13.202C18.6483 12.362 21.3517 12.362 23.8718 13.202C23.9379 13.2158 24.0024 13.2374 24.064 13.2662C25.0482 13.61 25.9878 14.083 26.8608 14.6741L28.8484 12.5719C29.1066 12.2988 29.4355 12.1129 29.7936 12.0375C30.1517 11.9622 30.523 12.0008 30.8603 12.1486C31.1976 12.2964 31.486 12.5466 31.6888 12.8676C31.8917 13.1887 32 13.5662 32 13.9523V13.9523ZM30.1538 13.9531L27.6222 16.6297C27.4656 16.7954 27.2578 16.896 27.0369 16.9131C26.8159 16.9303 26.5965 16.8628 26.4187 16.723C25.8558 16.2819 25.2515 15.903 24.6154 15.5923V18.4289C24.6154 18.6878 24.5181 18.9361 24.345 19.1192C24.1719 19.3022 23.9371 19.4051 23.6923 19.4051C23.4475 19.4051 23.2127 19.3022 23.0396 19.1192C22.8665 18.9361 22.7692 18.6878 22.7692 18.4289V14.8978C22.1638 14.7323 21.5462 14.6213 20.9231 14.5659V18.4289C20.9231 18.6878 20.8258 18.9361 20.6527 19.1192C20.4796 19.3022 20.2448 19.4051 20 19.4051C19.7552 19.4051 19.5204 19.3022 19.3473 19.1192C19.1742 18.9361 19.0769 18.6878 19.0769 18.4289V14.5658C18.4538 14.6212 17.8362 14.7322 17.2308 14.8977V18.4289C17.2308 18.6878 17.1335 18.9361 16.9604 19.1192C16.7873 19.3022 16.5525 19.4051 16.3077 19.4051C16.0629 19.4051 15.8281 19.3022 15.655 19.1192C15.4819 18.9361 15.3846 18.6878 15.3846 18.4289V15.5923C14.7484 15.903 14.144 16.2819 13.5809 16.723C13.4031 16.8627 13.1838 16.9301 12.9629 16.913C12.742 16.8959 12.5343 16.7953 12.3777 16.6297L9.84673 13.9529L9.84615 24.2859C9.84615 29.3694 13.9091 33.557 19.0769 34.0069V31.5235L17.5011 29.8571C17.328 29.674 17.2307 29.4257 17.2307 29.1668C17.2307 28.9079 17.328 28.6596 17.5011 28.4765C17.6742 28.2934 17.909 28.1906 18.1538 28.1906C18.3987 28.1906 18.6335 28.2934 18.8066 28.4765L20 29.7387L21.1934 28.4765C21.2791 28.3859 21.3809 28.314 21.4929 28.2649C21.6049 28.2158 21.7249 28.1906 21.8462 28.1906C21.9674 28.1906 22.0874 28.2158 22.1994 28.2649C22.3114 28.314 22.4132 28.3859 22.4989 28.4765C22.5846 28.5672 22.6526 28.6748 22.699 28.7932C22.7454 28.9117 22.7693 29.0386 22.7693 29.1668C22.7693 29.295 22.7454 29.4219 22.699 29.5404C22.6526 29.6588 22.5846 29.7664 22.4989 29.8571L20.9231 31.5235V34.0069C26.0909 33.557 30.1538 29.3694 30.1538 24.2859V13.9531Z" fill="#FAFAFA"/>
</svg>
