<svg width="62" height="45" viewBox="0 0 62 45" fill="none" xmlns="http://www.w3.org/2000/svg">
<path fill-rule="evenodd" clip-rule="evenodd" d="M38.9576 15.4368C32.6396 17.1999 29.0707 22.9863 29.0018 31.5781C28.9822 34.043 29.1168 35.0758 29.5704 35.9303C30.2681 37.2461 31.9625 38.3785 33.2356 38.3802C33.9404 38.3813 34.3255 38.7068 35.011 39.8801C36.0349 41.6333 37.8941 43.1992 40.1906 44.2421C41.5321 44.8514 42.4712 44.9881 45.3879 44.999C48.6099 45.0113 49.1486 44.9194 51.0655 44.0322C53.1742 43.0563 55.5443 40.8928 56.2803 39.2712C56.5512 38.6752 57.0052 38.4132 58.0012 38.2792C60.6409 37.9241 62 35.7609 62 31.9149C62 24.1524 58.6766 18.0109 53.3464 15.9232C51.595 15.2371 50.6095 15.1156 46.0659 15.0245C42.1356 14.9459 40.3439 15.0496 38.9576 15.4368ZM52.5823 17.618C56.0013 18.9134 58.3419 21.7817 59.4102 25.9856C60.6937 31.0358 60.4181 35.3129 58.7606 36.0708C58.3033 36.28 57.8707 36.3878 57.7998 36.3106C57.729 36.2337 57.8154 35.1754 57.9921 33.9593C58.3677 31.3719 58.1148 27.7858 57.3622 25.0355C56.7384 22.7556 56.1101 22.0345 55.3829 22.7641C54.968 23.1802 54.9812 23.4557 55.4792 24.7759C55.9176 25.9376 56.0576 27.4092 56.0617 30.8977C56.0667 35.1316 55.9986 35.6364 55.1914 37.3631C53.3868 41.2227 50.2464 43.1852 45.8008 43.2311C40.8673 43.2822 37.5306 41.3357 35.7582 37.373C34.5113 34.5846 34.2326 30.4154 35.0534 26.8156C35.8718 23.2251 35.8728 22.5634 35.0582 22.5634C34.5744 22.5634 34.2035 23.0308 33.7092 24.2643C33.1311 25.7056 33.026 26.7571 33.0203 31.1529C33.0132 36.6906 32.8511 37.1515 31.5126 35.4442C30.9312 34.7029 30.8098 34.0654 30.8098 31.7567C30.8098 28.8689 31.6784 24.6664 32.6748 22.7332C34.1774 19.8175 37.2957 17.5816 40.7181 16.9655C43.7948 16.4117 50.3501 16.7723 52.5823 17.618ZM39.022 26.3248C37.9412 27.084 38.0094 28.671 39.1549 29.4238C39.9489 29.9459 40.135 29.9544 40.9348 29.5061C42.1634 28.8176 42.3421 27.0963 41.2633 26.338C40.3005 25.6614 39.9682 25.6594 39.022 26.3248ZM49.4561 26.4755C49.0832 26.8496 48.7781 27.462 48.7781 27.8362C48.7781 28.2104 49.0832 28.8227 49.4561 29.1969C50.3281 30.0718 51.3069 30.0612 52.1978 29.1673C52.7172 28.6461 52.8474 28.2168 52.6877 27.5514C52.27 25.8108 50.6546 25.2729 49.4561 26.4755ZM43.5168 32.3911C42.9632 32.7973 42.9289 32.9898 43.2751 33.7518C43.4968 34.2403 43.8341 34.6397 44.0246 34.6397C44.2148 34.6397 44.3708 35.0877 44.3708 35.6354C44.3708 36.711 43.0584 38.0414 41.9976 38.0414C41.6749 38.0414 41.009 37.724 40.5178 37.3362C39.8323 36.7954 39.6245 36.33 39.6245 35.337C39.6245 33.7923 38.8874 32.9626 38.0989 33.6191C37.8192 33.8522 37.5903 34.4879 37.5903 35.0326C37.5903 38.6626 41.2962 40.8948 44.286 39.0657C45.3845 38.3938 45.3912 38.3938 46.4897 39.0657C47.8875 39.9209 49.6602 39.926 51.0448 39.079C52.3172 38.3006 52.7514 37.5798 53.0288 35.7878C53.2695 34.2325 52.6474 33.1157 51.7357 33.4671C51.3072 33.6317 51.1513 34.0842 51.1513 35.1615C51.1513 36.3443 50.9767 36.7692 50.2579 37.3362C49.7667 37.724 49.1008 38.0414 48.7781 38.0414C47.8519 38.0414 46.4049 36.7103 46.4049 35.8582C46.4049 35.4333 46.71 34.8081 47.083 34.4696C47.8939 33.7331 47.9736 32.4132 47.2247 32.1247C46.2673 31.756 44.1775 31.9064 43.5168 32.3911Z" fill="#3F2922"/>
<path fill-rule="evenodd" clip-rule="evenodd" d="M2.01191 0.841676C0.380555 3.37552 -0.478408 11.159 0.277042 16.5657C0.876284 20.8531 2.22081 23.6586 4.876 26.1602C7.99077 29.0948 10.3862 29.9873 15.1836 29.9995C18.6405 30.0083 19.1535 29.9099 21.4699 28.7941C27.9227 25.6856 30.4032 20.1579 29.9474 9.90109C29.7362 5.15133 28.595 0.467057 27.5497 0.0587306C26.7363 -0.258814 24.8941 0.72906 22.8261 2.5922L21.0582 4.18452L18.0217 3.79688C16.0192 3.54138 14.0013 3.5364 12.0974 3.78194C8.94195 4.18911 9.16027 4.26381 6.27925 1.7924C4.02419 -0.141985 2.81817 -0.410501 2.01191 0.841676ZM6.16482 4.37412L8.63706 6.50846L10.5172 6.09783C12.9319 5.57114 17.0671 5.57268 19.4912 6.10166L21.389 6.51612L23.9324 4.36455L26.4758 2.21298L26.9418 3.36212C27.1985 3.99414 27.6024 6.12043 27.8399 8.08699C28.2833 11.7573 27.946 16.7427 27.0381 19.9465C26.163 23.0342 22.4377 26.5789 19.0067 27.5879C16.7366 28.2559 12.843 28.1731 10.6667 27.4113C7.57258 26.328 5.20799 24.2274 3.70311 21.2258L2.38568 18.5981V12.0469C2.38568 7.79932 2.55619 4.9238 2.87087 3.86812C3.13737 2.97256 3.43172 2.24018 3.52432 2.24018C3.61691 2.24018 4.80523 3.20047 6.16482 4.37412ZM7.33733 12.9C6.6086 13.7193 6.52015 15.2959 7.16606 15.9532C7.41449 16.206 8.14284 16.4129 8.78462 16.4129C10.2138 16.4129 10.8549 15.8142 10.8549 14.4804C10.8549 12.5123 8.58775 11.4938 7.33733 12.9ZM19.7588 12.9C19.0301 13.7193 18.9416 15.2959 19.5875 15.9532C19.836 16.206 20.5643 16.4129 21.2061 16.4129C22.6353 16.4129 23.2763 15.8142 23.2763 14.4804C23.2763 12.5123 21.0092 11.4938 19.7588 12.9ZM13.1073 17.7608C12.7192 18.2369 12.7557 18.4806 13.3094 19.103C13.8582 19.7201 13.9075 20.0373 13.5725 20.7861C12.9646 22.144 11.7349 22.3983 10.4506 21.4323C9.86152 20.9891 9.11887 20.6264 8.79967 20.6264C7.8978 20.6264 8.11649 21.9261 9.19151 22.9538C10.4322 24.1397 13.0196 24.2423 14.203 23.1526C14.9822 22.4351 15.0085 22.4351 15.7877 23.1526C16.9711 24.2423 19.5585 24.1397 20.7992 22.9538C22.6398 21.1941 21.6875 19.6312 19.7656 21.258C18.5144 22.3171 18.0857 22.3639 16.9613 21.5622C16.1475 20.9822 15.7862 19.4772 16.4607 19.4772C17.0317 19.4772 17.2907 18.2599 16.8379 17.7049C16.2574 16.9936 13.702 17.0315 13.1073 17.7608Z" fill="#754A4A"/>
</svg>
