<svg width="404" height="301" viewBox="0 0 404 301" fill="none" xmlns="http://www.w3.org/2000/svg">
<g clip-path="url(#clip0)">
<path fill-rule="evenodd" clip-rule="evenodd" d="M23.9343 142.844C25.3483 142.158 44.263 122.733 47.2362 119.434L63.725 102.495C66.2198 100.129 75.4265 89.9427 77.156 88.7679L88.2587 117.51C85.7819 119.193 84.4128 122.346 83.3961 124.839C80.9073 130.942 83.639 137.705 89.9027 141.453C92.7775 143.173 95.1098 143.334 98.3818 143.717L115.852 188.944L121.792 186.65L129.303 206.094L101.726 216.746L114.788 250.561L93.5746 258.755L101.902 280.312L141.782 264.907L146.027 275.897L236.819 240.825L232.574 229.836L273.303 214.103C263.323 188.268 267.892 191.419 254.794 196.479C251.117 197.899 247.44 199.32 243.763 200.74L230.701 166.925L203.124 177.578L195.613 158.134L201.553 155.84L183.919 110.19C185.943 108.815 187.81 105.202 188.413 103.05C189.183 100.304 189.726 97.526 188.39 93.8868C187.202 90.6514 184.445 88.1424 182.328 86.9183C179.357 85.2006 177.394 84.8079 173.959 84.406L162.857 55.6635L176.934 56.4002C178.729 56.4602 179.883 56.731 181.679 56.7911C185.127 56.9066 187.488 57.191 190.936 57.3064L233.711 59.8745C235.372 59.9587 236.7 60.48 238.61 59.9186C236.828 58.6723 215.755 52.6678 213.328 51.9895L134.979 31.458L151.633 74.5718L98.1763 95.2211L81.5222 52.1073C80.0606 53.7837 78.9319 55.5313 77.614 57.4011C76.8581 58.4734 76.4881 59.1576 75.8427 60.1286C75.1533 61.1655 74.5358 61.9037 73.7759 63.0765L51.7227 96.8572C49.2719 100.771 47.0272 104.344 44.6525 108.124C42.2203 111.996 39.956 115.78 37.494 119.703C36.1505 121.844 24.4077 140.758 23.9347 142.844L23.9343 142.844Z" fill="black"/>
<path fill-rule="evenodd" clip-rule="evenodd" d="M142.763 36.5777C141.959 37.7089 141.339 35.6252 142.59 39.1772C142.839 39.8829 143.358 40.9338 143.661 41.705C146.525 48.979 155.933 72.0228 156.923 76.0231L95.1478 99.6575C92.5785 95.0367 89.5442 85.3073 87.4891 79.9188L81.8662 65.0896C79.5831 58.9535 80.8179 61.1869 79.1992 61.131C78.7659 62.5661 75.6474 66.7214 74.737 68.065C69.5455 75.7273 45.3204 112.905 41.8509 119.815L78.7978 81.9474L91.4944 114.295C98.6155 110.767 102.273 108.361 110.236 109.176C115.276 109.691 121.584 111.964 124.185 118.2C126.787 124.435 123.744 130.863 120.539 134.534C115.873 139.88 110.321 142.04 102.976 143.636L118.558 184.178L196.26 154.251L180.702 113.495C173.356 117.122 170.107 119.724 161.719 119.007C147.551 117.796 141.357 104.34 151.575 93.1437C157.362 86.8033 161.489 86.7201 169.418 84.2932L156.877 51.799L209.854 55.0868C204.815 52.771 165.486 42.4135 159.54 41.001L142.763 36.5778L142.763 36.5777Z" fill="#DED9BD"/>
<path fill-rule="evenodd" clip-rule="evenodd" d="M150.609 249.066L216.09 223.766L191.503 159.599L171.984 166.956L182.485 194.429L155.921 204.673L145.338 177.343L125.98 184.706L150.609 249.066Z" fill="#DED9BD"/>
<path fill-rule="evenodd" clip-rule="evenodd" d="M220.148 222.204L228.189 219.112L231.392 226.895L252.539 218.729C251.277 215.292 250.586 213.159 250.242 209.809C252.297 211.452 253.633 214.981 254.781 217.817L259.866 215.919C258.817 213.059 257.316 209.569 257.812 206.926C259.394 209.139 260.903 211.979 262.064 214.91L268.041 212.776L262.025 197.251L240.953 205.391L227.912 171.632L204.207 180.57L220.149 222.204L220.148 222.204Z" fill="#A6A38F"/>
<path fill-rule="evenodd" clip-rule="evenodd" d="M119.842 252.174L98.8405 260.3L104.669 275.68L110.612 273.59C109.613 270.912 107.982 267.034 108.582 264.789C110.443 266.608 111.733 269.95 112.773 272.483L117.915 270.685C116.883 267.937 115.554 264.595 115.795 262.004C117.756 263.365 119.104 267.215 120.188 269.866L140.907 261.842L137.874 253.984L146.233 250.749L130.417 209.154L106.75 218.227L119.842 252.175L119.842 252.174Z" fill="#A6A38F"/>
<path fill-rule="evenodd" clip-rule="evenodd" d="M138.454 131.81C134.193 133.875 129.839 136.814 127.216 139.939C116.839 152.298 133.762 159.409 153.659 149.734C160.864 146.23 173.355 136.219 165.312 129.899C159.58 125.394 146.988 127.674 138.454 131.81Z" fill="black"/>
<path fill-rule="evenodd" clip-rule="evenodd" d="M96.8199 114.871C75.9895 125.757 90.5216 148.668 111.238 137.834C131.927 127.014 117.22 104.209 96.8199 114.871Z" fill="#FEFEFE"/>
<path fill-rule="evenodd" clip-rule="evenodd" d="M160.833 90.1184C139.778 100.864 154.248 124.174 175.278 113.074C182.175 109.434 188.184 100.682 183.329 93.341C179.207 87.1078 169.278 85.8089 160.833 90.1186L160.833 90.1184Z" fill="#FEFEFE"/>
<path fill-rule="evenodd" clip-rule="evenodd" d="M192.052 254.656C195.25 253.797 216.123 245.873 217.946 244.458C216.914 241.722 215.475 238.192 215.813 235.673C217.815 237.214 219.158 241.068 220.293 243.869L224.58 242.175C223.3 238.698 222.327 236.145 222.137 232.568C224.306 234.85 225.582 238.193 226.816 241.284L231.81 239.396L225.636 223.467L185.987 238.731L192.052 254.656Z" fill="#DED9BD"/>
<path fill-rule="evenodd" clip-rule="evenodd" d="M149.003 271.407L153.946 269.497C152.919 266.639 151.361 262.997 151.749 260.417C153.759 262.024 155.09 265.814 156.215 268.621L160.505 266.921C159.231 263.534 158.209 260.748 158.073 257.317C160.19 259.673 161.486 262.942 162.748 266.05L188.27 256.253L182.057 240.245L142.953 255.349L149.003 271.407L149.003 271.407Z" fill="#DED9BD"/>
<path fill-rule="evenodd" clip-rule="evenodd" d="M158.616 200.31L177.557 193.008L168.032 168.487L159.732 171.725C161.259 177.521 163.376 181.466 164.337 187.472C161.207 182.596 159.816 176.941 157.2 172.677L149.344 175.704L158.616 200.31L158.616 200.31Z" fill="#FD0000"/>
<path fill-rule="evenodd" clip-rule="evenodd" d="M138.525 135.284C135.171 137.104 132.095 139.217 130.037 141.877C127.84 144.715 127.094 149.01 131.611 150.355C147.022 154.944 173.572 135.663 160.462 131.336C154.771 129.458 145.105 131.713 138.525 135.284Z" fill="#7E583C"/>
<path fill-rule="evenodd" clip-rule="evenodd" d="M142.763 36.5777C141.629 36.1291 143.821 35.5788 141.08 36.4539L156.502 75.7377L95.3818 99.3476L80.4133 59.8239C77.504 61.276 80.0722 59.8714 79.1991 61.1308C80.8179 61.1866 79.583 58.9533 81.8661 65.0893L87.489 79.9186C89.5441 85.3071 92.5784 95.0365 95.1477 99.6573L156.923 76.0229C155.933 72.0227 146.525 48.9788 143.661 41.7048C143.357 40.9336 142.839 39.8827 142.59 39.177C141.339 35.625 141.959 37.7087 142.763 36.5775L142.763 36.5777Z" fill="#615F54"/>
<path fill-rule="evenodd" clip-rule="evenodd" d="M106.465 123.371C102.417 127.083 108.178 131.465 112.776 127.61C117.03 124.043 111.203 119.025 106.465 123.371Z" fill="black"/>
<path fill-rule="evenodd" clip-rule="evenodd" d="M159.695 102.917C155.641 107.321 162.226 110.641 166.178 106.933C170.305 103.06 163.84 98.4136 159.695 102.917Z" fill="black"/>
<path fill-rule="evenodd" clip-rule="evenodd" d="M23.9342 142.844L23.1118 143.429L23.9342 142.844Z" fill="black"/>
<path fill-rule="evenodd" clip-rule="evenodd" d="M238.61 59.9184L239.625 60.0849L238.61 59.9184Z" fill="black"/>
</g>
<g clip-path="url(#clip1)">
<path fill-rule="evenodd" clip-rule="evenodd" d="M178.819 164.124L227.259 149.185V154.164C223.186 155.113 208.159 161.805 204.474 163.522C202.485 164.449 200.996 165.029 199.191 165.935C197.38 166.843 195.57 167.745 193.758 168.651C191.854 169.603 184.291 173.246 183.346 174.536C185.076 174.133 186.96 172.957 188.624 172.118C190.523 171.161 192.018 170.672 193.912 169.71C204.402 164.379 220.557 159.191 227.259 155.975V160.955C223.044 163.185 192.699 179.312 190.136 183.138L208.389 172.87C214.678 169.377 220.978 166.542 227.259 163.219V183.591H281.132C279.954 185.816 278.626 187.833 277.254 190.125L264.921 209.482C259.317 218.223 253.785 226.686 248.084 235.2L201.907 220.26C201.956 222.438 206.508 238.177 207.429 241.901C208.259 245.253 209.206 249 210.247 252.665C211.28 256.301 212.413 260.237 213.225 263.721H193.306V286.356C212.637 286.356 230.801 286.809 250.347 286.809V291.789H332.288V286.809C351.832 286.809 370.02 286.356 389.33 286.356V263.721H369.864C369.915 261.409 377 235.298 378.173 231.286C379.135 227.992 379.913 223.357 381.181 220.713C379.059 220.76 337.651 233.713 334.552 235.2C334.123 233.593 331.607 230.331 330.568 228.772C322.667 216.92 307.24 193.576 301.957 183.591H354.924V163.671C357.875 165.233 360.983 166.701 363.978 168.198L382.227 178.018C384.171 179.1 389.593 182.725 391.141 183.138C390.025 181.471 384.714 178.505 382.626 177.166C379.546 175.19 376.912 173.576 373.683 171.623C367.549 167.911 361.217 164.738 354.924 161.408V156.428C362.063 158.091 397.615 174.463 397.932 174.537C396.868 173.085 394.839 172.644 393.143 171.629C391.223 170.48 389.862 169.822 387.821 168.802L360.679 156.558C358.694 155.764 356.619 155.061 354.924 154.164V149.637L367.151 152.802C377.158 155.402 386.501 158.935 396.293 162.142C398.378 162.825 400.427 163.955 402.459 164.124C401.845 163.591 402.445 163.958 401.357 163.415C392.108 158.796 371.478 152.551 361.206 149.24C359.1 148.561 356.734 148.242 354.924 147.374V136.961C364.382 131.957 369.082 122.624 361.987 113.148C359.965 110.449 357.586 109.318 354.924 107.535V60.0001C351.434 62.3372 331.813 85.1134 326.751 90.2275C325 91.9973 323.972 92.609 322.781 94.859L265.739 94.8592C264.479 94.861 262.835 94.9582 261.631 94.8934C259.7 94.7893 259.879 94.7296 258.797 93.6527L249.097 82.9809C248.192 82.0042 248.139 81.6819 247.288 80.7152L239.362 72.3431C236.623 69.6177 230.782 62.3593 227.259 60.0001V107.535C224.791 108.11 221.48 111.09 219.901 112.853C217.918 115.069 216.381 117.908 216.366 122.016C216.35 126.419 217.63 128.977 219.689 131.403C221.239 133.229 224.77 136.381 227.259 136.961V147.374C224.337 147.617 205.12 153.922 202.189 154.899C199.607 155.76 182.493 161.968 179.622 163.57C179.032 163.899 179.169 163.82 178.819 164.124L178.819 164.124Z" fill="black"/>
<path fill-rule="evenodd" clip-rule="evenodd" d="M220.524 283.47L250.243 283.533L250.338 273.162L332.222 273.161L332.247 283.539L362.455 283.48L329.565 234.303C324.173 226.26 301.632 192.239 297.361 183.667L286.564 183.601C285.067 183.602 283.939 186.621 282.328 189.312C273.467 204.105 263.27 219.34 253.766 233.635C251.96 236.35 220.903 281.942 220.524 283.47V283.47Z" fill="#B1B1B1"/>
<path fill-rule="evenodd" clip-rule="evenodd" d="M231.462 105.739C238.158 105.476 242.971 103.334 252.047 107.649C256.912 109.962 262.544 114.979 262.655 122.018C262.769 129.27 257.132 134.358 252.404 136.742C244.616 140.67 239.981 139.535 231.402 138.696L231.383 146.181C237.109 145.463 245.344 142.968 251.458 141.665C258.102 140.25 265.975 139.424 272.405 137.785C271.779 137.15 271.6 137.075 270.941 136.056C271.442 134.887 271.794 133.871 272.983 133.599H302.862C311.714 133.595 308.601 133.263 311.026 135.453C310.501 137.15 310.259 136.605 309.523 138.032C316.457 138.986 323.831 140.369 330.579 141.832C337.029 143.229 344.752 145.517 350.913 146.509L350.882 138.436C343.106 140.077 336.815 140.197 329.921 137.052C316.151 130.771 315.064 114.612 329.659 107.63C336.878 104.177 342.881 104.517 350.832 106.103L350.905 69.6851C349.903 70.5971 349.025 71.1609 348.115 72.1947L337.718 83.5268C335.575 85.8077 325.901 97.336 324.405 97.7398L258.573 97.8244C256.928 97.5293 253.805 93.731 252.751 92.4524L237.042 75.1102C235.564 73.6693 232.573 70.2528 231.55 69.7031L231.462 105.739L231.462 105.739Z" fill="#B1B1B1"/>
<path fill-rule="evenodd" clip-rule="evenodd" d="M231.407 161.011L231.33 180.404L350.898 180.437L350.909 161.413C343.385 158.549 336.018 154.658 328.128 151.534C322.615 149.351 309.608 143.7 304.22 142.836L292.981 153.18L292.989 172.112C298.976 172.369 306.469 171.596 312.369 170.975C318.511 170.329 325.612 168.944 331.541 168.684C324.921 172.059 300.171 175.23 291.091 175.238C282.249 175.245 257.666 172.308 250.248 168.697C255.78 168.839 263.129 170.296 268.911 170.906C275.489 171.6 282.126 172.089 288.81 172.168L288.937 152.707C287.142 151.633 280.555 145.086 277.51 142.628C264.651 145.94 243.943 155.621 231.407 161.011Z" fill="#B1B1B1"/>
<path fill-rule="evenodd" clip-rule="evenodd" d="M218.257 266.772L197.587 266.86L197.584 283.013L202.178 283.195C202.211 280.128 202.315 278.023 203.364 275.58C204.575 277.566 204.592 280.58 204.626 283.207L209.295 283.246C209.352 280.697 209.322 277.784 210.509 275.887C211.721 277.771 211.704 280.501 211.765 283.24L215.968 283.216C218.752 277.711 235.592 255.237 239.897 247.423C237.838 245.794 232.825 244.476 230.051 243.268C226.382 241.671 223.962 240.246 220.98 238.514C228.383 238.877 237.832 243.633 242.304 244.402L246.261 238.018L207.516 225.679L218.257 266.772H218.257Z" fill="#898989"/>
<path fill-rule="evenodd" clip-rule="evenodd" d="M336.699 237.825L340.789 244.311C345.458 243.451 352.838 239.351 361.738 238.484C358.953 240.499 356.011 241.787 352.599 243.291C350.703 244.126 344.003 246.443 342.891 247.361L366.943 283.24L371.003 283.13C371.029 280.361 371.296 277.573 372.222 275.62C373.387 277.669 373.406 280.597 373.452 283.22L378.114 283.242C378.173 280.504 378.155 277.76 379.37 275.888C380.558 277.787 380.525 280.704 380.584 283.24L385.126 283.179L385.13 266.975L364.588 266.811L375.297 225.766L336.699 237.825V237.825Z" fill="#898989"/>
<path fill-rule="evenodd" clip-rule="evenodd" d="M236.185 108.18C211.132 111.72 218.215 139.662 242.993 136.358C251.009 135.289 261.03 128.793 258.155 119.171C255.928 111.714 246.13 106.775 236.185 108.18Z" fill="#FEFEFE"/>
<path fill-rule="evenodd" clip-rule="evenodd" d="M337.965 108.378C312.535 113.181 322.854 140.894 346.9 136.133C354.7 134.588 364.129 127.919 360.459 118.309C357.788 111.316 348.234 106.439 337.965 108.378Z" fill="#FEFEFE"/>
<path fill-rule="evenodd" clip-rule="evenodd" d="M293.457 288.63L311.893 288.727C311.925 286.566 311.835 283.018 313.325 281.267C313.91 283.441 314.306 285.935 314.34 288.551L319.029 288.628C319.078 285.614 319.443 283.775 320.017 281.221L321.2 284.246C321.439 285.742 321.457 287.166 321.479 288.673L328.181 288.729L328.181 276.247L293.457 276.205V288.63L293.457 288.63Z" fill="#B1B1B1"/>
<path fill-rule="evenodd" clip-rule="evenodd" d="M270.805 288.426L288.964 288.548V276.379L254.367 276.419L254.373 288.747L261.177 288.752C261.192 287.362 261.212 286.031 261.372 284.683C261.414 284.326 261.617 283.115 261.718 282.821L262.621 281.247C263.139 283.431 263.578 285.955 263.623 288.569L268.301 288.711C268.367 285.464 268.677 283.891 269.297 281.232L270.513 284.345C270.696 285.634 270.711 287.06 270.805 288.426L270.805 288.426Z" fill="#B1B1B1"/>
<path fill-rule="evenodd" clip-rule="evenodd" d="M291.091 149.974C292.413 149.038 293.429 148.041 294.709 146.912L305.058 136.655L276.834 136.65C280.473 140.111 287.411 147.535 291.091 149.974V149.974Z" fill="#8B608A"/>
<path fill-rule="evenodd" clip-rule="evenodd" d="M350.809 159.498C350.96 154.178 351.219 154.94 349.093 154.102L340.988 151.349C334.748 149.271 312.723 142.198 308.523 142.134C312.889 142.898 334.352 151.941 340.369 154.694C343.793 156.26 347.638 158.361 350.809 159.498Z" fill="#B1B1B1"/>
<path fill-rule="evenodd" clip-rule="evenodd" d="M231.387 148.134L231.372 152.448C237.347 151.063 251.32 145.666 260.598 143.125C263.83 142.24 268.096 141.478 270.857 140.181C264.385 140.489 238.062 146.149 231.387 148.134H231.387Z" fill="#B1B1B1"/>
<path fill-rule="evenodd" clip-rule="evenodd" d="M350.9 152.844L350.889 148.284C339.473 146.365 321.734 140.719 310.418 140.181L330.81 146.132C337.325 148.2 344.777 151.29 350.9 152.844Z" fill="#B1B1B1"/>
<path fill-rule="evenodd" clip-rule="evenodd" d="M231.374 155.07L231.409 159.02C234.431 157.982 238.145 155.926 241.218 154.552C244.634 153.025 248.176 151.55 251.694 150.079C255.961 148.295 268.862 142.801 272.751 142.137C268.727 142.183 247.438 148.992 241.31 151.01C239.214 151.701 232.274 153.38 231.374 155.07Z" fill="#B1B1B1"/>
<path fill-rule="evenodd" clip-rule="evenodd" d="M243.247 119.213C236.853 120.955 240.205 128.036 246.45 126.268C252.225 124.633 249.18 117.598 243.247 119.213Z" fill="black"/>
<path fill-rule="evenodd" clip-rule="evenodd" d="M335.597 119.211C329.258 120.928 332.528 128.044 338.801 126.265C344.611 124.618 341.524 117.607 335.597 119.211Z" fill="black"/>
<path fill-rule="evenodd" clip-rule="evenodd" d="M270.805 288.426C271.528 289.601 287.933 288.972 289.028 288.821C289.832 286.968 289.772 278.149 289.106 276.118C285.83 275.536 265.049 275.967 258.495 275.925C256.734 275.914 255.604 275.625 254.367 276.419L288.964 276.379V288.548L270.805 288.426V288.426Z" fill="#4B4B4B"/>
<path fill-rule="evenodd" clip-rule="evenodd" d="M188.778 184.043H188.325L188.703 184.572L188.778 184.043Z" fill="black"/>
<path fill-rule="evenodd" clip-rule="evenodd" d="M392.499 184.043V184.496L393.027 184.119L392.499 184.043Z" fill="black"/>
<path fill-rule="evenodd" clip-rule="evenodd" d="M177.008 165.029C177.053 165.074 177.142 164.831 177.143 164.894H177.143C177.134 164.903 176.963 164.984 177.008 165.029Z" fill="black"/>
<path fill-rule="evenodd" clip-rule="evenodd" d="M403.817 165.029L403.952 164.894C403.943 164.903 403.772 164.984 403.817 165.029Z" fill="black"/>
<path fill-rule="evenodd" clip-rule="evenodd" d="M178.819 164.124L177.845 164.373L178.819 164.124Z" fill="black"/>
<path fill-rule="evenodd" clip-rule="evenodd" d="M402.459 164.124L403.341 164.645L402.459 164.124Z" fill="black"/>
<path fill-rule="evenodd" clip-rule="evenodd" d="M183.346 174.536L182.372 174.785L183.346 174.536Z" fill="black"/>
<path fill-rule="evenodd" clip-rule="evenodd" d="M397.932 174.536L398.814 175.057L397.932 174.536Z" fill="black"/>
<path fill-rule="evenodd" clip-rule="evenodd" d="M190.136 183.138L189.231 183.591L190.136 183.138Z" fill="black"/>
<path fill-rule="evenodd" clip-rule="evenodd" d="M392.046 183.591L391.141 183.138L392.046 183.591Z" fill="black"/>
<path fill-rule="evenodd" clip-rule="evenodd" d="M189.231 183.591L188.778 184.043L189.231 183.591Z" fill="black"/>
<path fill-rule="evenodd" clip-rule="evenodd" d="M392.499 184.043L392.046 183.591L392.499 184.043Z" fill="black"/>
</g>
<defs>
<clipPath id="clip0">
<rect width="232" height="232" fill="white" transform="translate(0 83.5972) rotate(-21.1206)"/>
</clipPath>
<clipPath id="clip1">
<rect width="226.952" height="231.789" fill="white" transform="translate(177 60)"/>
</clipPath>
</defs>
</svg>
