<svg width="40" height="51" viewBox="0 0 40 51" fill="none" xmlns="http://www.w3.org/2000/svg">
<circle cx="20" cy="20" r="20" fill="#FF6043"/>
<path d="M20 51L33.8564 34.5H6.14359L20 51Z" fill="#FF6043"/>
<path d="M12.5 20C13.8807 20 15 18.8807 15 17.5C15 16.1193 13.8807 15 12.5 15C11.1193 15 10 16.1193 10 17.5C10 18.8807 11.1193 20 12.5 20Z" fill="#FAFAFA"/>
<path d="M17 16C18.3807 16 19.5 14.8807 19.5 13.5C19.5 12.1193 18.3807 11 17 11C15.6193 11 14.5 12.1193 14.5 13.5C14.5 14.8807 15.6193 16 17 16Z" fill="#FAFAFA"/>
<path d="M23 16C24.3807 16 25.5 14.8807 25.5 13.5C25.5 12.1193 24.3807 11 23 11C21.6193 11 20.5 12.1193 20.5 13.5C20.5 14.8807 21.6193 16 23 16Z" fill="#FAFAFA"/>
<path d="M27.5 20C28.8807 20 30 18.8807 30 17.5C30 16.1193 28.8807 15 27.5 15C26.1193 15 25 16.1193 25 17.5C25 18.8807 26.1193 20 27.5 20Z" fill="#FAFAFA"/>
<path d="M25.34 22.86C24.47 21.84 23.74 20.97 22.86 19.95C22.4 19.41 21.81 18.87 21.11 18.63C21 18.59 20.89 18.56 20.78 18.54C20.53 18.5 20.26 18.5 20 18.5C19.74 18.5 19.47 18.5 19.21 18.55C19.1 18.57 18.99 18.6 18.88 18.64C18.18 18.88 17.6 19.42 17.13 19.96C16.26 20.98 15.53 21.85 14.65 22.87C13.34 24.18 11.73 25.63 12.03 27.66C12.32 28.68 13.05 29.69 14.36 29.98C15.09 30.13 17.42 29.54 19.9 29.54H20.08C22.56 29.54 24.89 30.12 25.62 29.98C26.93 29.69 27.66 28.67 27.95 27.66C28.26 25.62 26.65 24.17 25.34 22.86Z" fill="#FAFAFA"/>
</svg>
