<svg width="151" height="151" viewBox="0 0 151 151" fill="none" xmlns="http://www.w3.org/2000/svg">
<circle cx="75" cy="75" r="75" fill="#FFF0E7"/>
<mask id="path-2-outside-1" maskUnits="userSpaceOnUse" x="37.8906" y="89.8939" width="50.4277" height="61.8003" fill="black">
<rect fill="white" x="37.8906" y="89.8939" width="50.4277" height="61.8003"/>
<path fill-rule="evenodd" clip-rule="evenodd" d="M83.9693 95.8517C84.7183 96.3036 85.1412 96.878 85.5956 98.0616C86.3213 99.9513 86.4584 102.305 86.0433 105.747C85.73 108.345 85.4486 109.667 84.6924 112.093C83.4476 116.087 81.2699 119.424 77.7754 122.695L76.5594 123.832L76.8003 124.408C77.0569 125.021 78.6492 130.355 79.0754 132.029C80.0651 135.916 78.9108 139.596 75.7056 142.771C72.6411 145.806 68.2728 147.63 63.4023 147.906C61.3528 148.023 58.3505 147.666 56.3855 147.071C50.737 145.363 46.3354 141.6 44.4729 136.886C43.3593 134.068 43.3461 131.352 44.4341 128.878C44.8746 127.876 47.8815 122.589 48.7461 121.296L49.2276 120.576L48.3171 119.178C47.1321 117.357 46.3487 115.847 45.5914 113.923C44.0965 110.125 43.7252 106.86 44.2047 101.73C44.5086 98.4793 44.8145 97.0262 45.5867 95.1667C46.4211 93.1569 47.4226 92.008 48.6672 91.6331C49.2416 91.46 49.4871 91.4449 49.936 91.5547C52.1182 92.0887 54.1436 94.9838 55.5329 99.5547C56.3134 102.123 56.9169 105.889 56.9681 108.51C56.9922 109.737 56.4188 113.923 56.1143 114.746C56.0195 115.002 55.9541 115.213 55.9689 115.215C55.9836 115.217 56.5044 115.021 57.1261 114.781C58.3533 114.306 59.8765 113.943 61.2076 113.808C62.4561 113.681 65.4462 114.047 66.5829 114.466C67.9515 114.97 69.1883 115.6 70.2426 116.331C71.3377 117.091 71.2718 117.128 71.2318 115.774C71.1976 114.616 71.5864 111.372 71.8961 110.231C73.7643 103.344 78.115 96.7223 81.4657 95.6649C82.4974 95.3393 83.2079 95.3924 83.9693 95.8517ZM81.8934 97.3566C79.3461 98.4248 75.894 103.807 74.0111 109.644C73.2363 112.046 72.9731 114.94 73.2546 117.958C73.3436 118.913 73.3684 118.969 74.109 119.923C74.5286 120.463 75.0492 121.188 75.266 121.534L75.6603 122.162L76 121.873C76.8817 121.123 79 118.763 79.8517 117.582C82.2127 114.308 83.6122 110.373 84.1961 105.368C84.6358 101.599 84.2748 98.6438 83.2304 97.4638C82.8821 97.0702 82.6253 97.0496 81.8934 97.3566ZM48.9499 93.3841C47.427 94.4471 46.1062 98.6518 45.9335 102.987C45.7814 106.803 46.0778 109.554 46.9209 112.151C47.5992 114.241 49.0447 117.131 50.2462 118.799L50.4986 119.15L51.0168 118.662C51.3017 118.394 51.9827 117.81 52.5299 117.364C53.4912 116.581 53.5358 116.522 53.841 115.633C54.502 113.709 54.6907 112.884 54.9334 110.861C55.2055 108.593 55.165 107.281 54.7367 104.492C53.9851 99.5988 52.1388 95.0496 50.3361 93.6492C49.6631 93.1264 49.3929 93.0748 48.9499 93.3841ZM61.6439 115.491C57.6215 115.76 53.4314 118.181 50.7007 121.814C49.7496 123.079 46.392 128.923 45.9951 130.004C45.3914 131.648 45.3845 133.773 45.977 135.587C47.4274 140.027 51.236 143.56 56.4664 145.317C57.6656 145.719 58.14 145.817 60.0017 146.044C61.8047 146.263 62.37 146.289 63.5015 146.201C67.9786 145.853 71.892 144.127 74.5558 141.324C76.2587 139.533 77.0334 138.09 77.3866 136.052C77.7023 134.229 77.5864 133.444 76.4013 129.384C75.1396 125.06 75.0023 124.691 74.0279 123.002C72.1001 119.661 68.9965 117.025 65.7643 115.984C64.7394 115.653 62.7588 115.417 61.6439 115.491ZM70.1953 128.567C70.9259 128.968 71.1733 129.489 71.0177 130.296C70.9236 130.785 70.8126 130.999 70.5508 131.195C69.5632 131.935 68.3408 131.76 67.6087 130.774C67.2362 130.272 67.3054 129.393 67.7584 128.874C68.0613 128.528 68.9525 128.199 69.4329 128.256C69.5721 128.273 69.9152 128.413 70.1953 128.567ZM55.8975 126.865C56.5682 127.234 56.849 127.778 56.7596 128.535C56.7046 129 56.615 129.182 56.3175 129.43C55.301 130.278 53.8282 130.037 53.2481 128.927C52.9739 128.403 53.0688 127.621 53.4606 127.173C53.7635 126.827 54.6547 126.498 55.1351 126.555C55.2743 126.571 55.6174 126.711 55.8975 126.865ZM73.0009 134.449C73.7387 134.757 74.11 135.213 74.0478 135.736C73.9033 136.95 71.1779 137.091 70.1571 135.937C69.7261 135.45 69.7251 135.079 70.1535 134.696C70.777 134.139 72.0031 134.033 73.0009 134.449ZM51.8087 131.863C52.3428 132.046 52.6657 132.273 52.9243 132.647C53.2499 133.118 53.1611 133.479 52.6285 133.851C51.3743 134.727 48.7501 133.949 48.8934 132.745C48.9577 132.205 49.4292 131.861 50.2668 131.742C50.9661 131.644 51.2299 131.664 51.8087 131.863ZM63.0751 135.487C64.0835 135.847 64.6562 136.511 64.6622 137.327C64.6653 137.749 64.5926 137.936 64.2822 138.304C63.9052 138.752 63.164 139.276 62.5107 139.558L62.18 139.701L62.4807 140.04C62.6659 140.25 62.9203 140.397 63.1429 140.423C63.5336 140.47 64.1008 140.174 64.1325 139.908C64.148 139.777 64.3552 139.767 65.1177 139.858L66.0832 139.973L65.9617 140.367C65.3914 142.22 62.6707 142.72 61.155 141.25L60.69 140.799L60.1322 141.129C58.3138 142.202 55.7865 141.077 55.667 139.142L55.6415 138.73L56.607 138.845C57.3809 138.937 57.5686 138.993 57.5525 139.129C57.5186 139.414 57.9609 139.806 58.3701 139.855C58.6188 139.885 58.8877 139.809 59.1284 139.641C59.4843 139.392 59.4912 139.373 59.2763 139.229C58.808 138.916 58.037 138.038 57.7822 137.528C57.2981 136.559 57.7472 135.659 58.9253 135.237C59.4542 135.048 59.6838 135.042 61.1013 135.187C61.973 135.276 62.8612 135.411 63.0751 135.487ZM59.8312 136.783C59.5036 136.853 59.5547 137.085 59.9939 137.521C60.696 138.219 61.9502 138.192 62.5124 137.466C62.6396 137.302 62.6411 137.224 62.5188 137.135C62.3372 137.001 60.148 136.715 59.8312 136.783Z"/>
</mask>
<path fill-rule="evenodd" clip-rule="evenodd" d="M83.9693 95.8517C84.7183 96.3036 85.1412 96.878 85.5956 98.0616C86.3213 99.9513 86.4584 102.305 86.0433 105.747C85.73 108.345 85.4486 109.667 84.6924 112.093C83.4476 116.087 81.2699 119.424 77.7754 122.695L76.5594 123.832L76.8003 124.408C77.0569 125.021 78.6492 130.355 79.0754 132.029C80.0651 135.916 78.9108 139.596 75.7056 142.771C72.6411 145.806 68.2728 147.63 63.4023 147.906C61.3528 148.023 58.3505 147.666 56.3855 147.071C50.737 145.363 46.3354 141.6 44.4729 136.886C43.3593 134.068 43.3461 131.352 44.4341 128.878C44.8746 127.876 47.8815 122.589 48.7461 121.296L49.2276 120.576L48.3171 119.178C47.1321 117.357 46.3487 115.847 45.5914 113.923C44.0965 110.125 43.7252 106.86 44.2047 101.73C44.5086 98.4793 44.8145 97.0262 45.5867 95.1667C46.4211 93.1569 47.4226 92.008 48.6672 91.6331C49.2416 91.46 49.4871 91.4449 49.936 91.5547C52.1182 92.0887 54.1436 94.9838 55.5329 99.5547C56.3134 102.123 56.9169 105.889 56.9681 108.51C56.9922 109.737 56.4188 113.923 56.1143 114.746C56.0195 115.002 55.9541 115.213 55.9689 115.215C55.9836 115.217 56.5044 115.021 57.1261 114.781C58.3533 114.306 59.8765 113.943 61.2076 113.808C62.4561 113.681 65.4462 114.047 66.5829 114.466C67.9515 114.97 69.1883 115.6 70.2426 116.331C71.3377 117.091 71.2718 117.128 71.2318 115.774C71.1976 114.616 71.5864 111.372 71.8961 110.231C73.7643 103.344 78.115 96.7223 81.4657 95.6649C82.4974 95.3393 83.2079 95.3924 83.9693 95.8517ZM81.8934 97.3566C79.3461 98.4248 75.894 103.807 74.0111 109.644C73.2363 112.046 72.9731 114.94 73.2546 117.958C73.3436 118.913 73.3684 118.969 74.109 119.923C74.5286 120.463 75.0492 121.188 75.266 121.534L75.6603 122.162L76 121.873C76.8817 121.123 79 118.763 79.8517 117.582C82.2127 114.308 83.6122 110.373 84.1961 105.368C84.6358 101.599 84.2748 98.6438 83.2304 97.4638C82.8821 97.0702 82.6253 97.0496 81.8934 97.3566ZM48.9499 93.3841C47.427 94.4471 46.1062 98.6518 45.9335 102.987C45.7814 106.803 46.0778 109.554 46.9209 112.151C47.5992 114.241 49.0447 117.131 50.2462 118.799L50.4986 119.15L51.0168 118.662C51.3017 118.394 51.9827 117.81 52.5299 117.364C53.4912 116.581 53.5358 116.522 53.841 115.633C54.502 113.709 54.6907 112.884 54.9334 110.861C55.2055 108.593 55.165 107.281 54.7367 104.492C53.9851 99.5988 52.1388 95.0496 50.3361 93.6492C49.6631 93.1264 49.3929 93.0748 48.9499 93.3841ZM61.6439 115.491C57.6215 115.76 53.4314 118.181 50.7007 121.814C49.7496 123.079 46.392 128.923 45.9951 130.004C45.3914 131.648 45.3845 133.773 45.977 135.587C47.4274 140.027 51.236 143.56 56.4664 145.317C57.6656 145.719 58.14 145.817 60.0017 146.044C61.8047 146.263 62.37 146.289 63.5015 146.201C67.9786 145.853 71.892 144.127 74.5558 141.324C76.2587 139.533 77.0334 138.09 77.3866 136.052C77.7023 134.229 77.5864 133.444 76.4013 129.384C75.1396 125.06 75.0023 124.691 74.0279 123.002C72.1001 119.661 68.9965 117.025 65.7643 115.984C64.7394 115.653 62.7588 115.417 61.6439 115.491ZM70.1953 128.567C70.9259 128.968 71.1733 129.489 71.0177 130.296C70.9236 130.785 70.8126 130.999 70.5508 131.195C69.5632 131.935 68.3408 131.76 67.6087 130.774C67.2362 130.272 67.3054 129.393 67.7584 128.874C68.0613 128.528 68.9525 128.199 69.4329 128.256C69.5721 128.273 69.9152 128.413 70.1953 128.567ZM55.8975 126.865C56.5682 127.234 56.849 127.778 56.7596 128.535C56.7046 129 56.615 129.182 56.3175 129.43C55.301 130.278 53.8282 130.037 53.2481 128.927C52.9739 128.403 53.0688 127.621 53.4606 127.173C53.7635 126.827 54.6547 126.498 55.1351 126.555C55.2743 126.571 55.6174 126.711 55.8975 126.865ZM73.0009 134.449C73.7387 134.757 74.11 135.213 74.0478 135.736C73.9033 136.95 71.1779 137.091 70.1571 135.937C69.7261 135.45 69.7251 135.079 70.1535 134.696C70.777 134.139 72.0031 134.033 73.0009 134.449ZM51.8087 131.863C52.3428 132.046 52.6657 132.273 52.9243 132.647C53.2499 133.118 53.1611 133.479 52.6285 133.851C51.3743 134.727 48.7501 133.949 48.8934 132.745C48.9577 132.205 49.4292 131.861 50.2668 131.742C50.9661 131.644 51.2299 131.664 51.8087 131.863ZM63.0751 135.487C64.0835 135.847 64.6562 136.511 64.6622 137.327C64.6653 137.749 64.5926 137.936 64.2822 138.304C63.9052 138.752 63.164 139.276 62.5107 139.558L62.18 139.701L62.4807 140.04C62.6659 140.25 62.9203 140.397 63.1429 140.423C63.5336 140.47 64.1008 140.174 64.1325 139.908C64.148 139.777 64.3552 139.767 65.1177 139.858L66.0832 139.973L65.9617 140.367C65.3914 142.22 62.6707 142.72 61.155 141.25L60.69 140.799L60.1322 141.129C58.3138 142.202 55.7865 141.077 55.667 139.142L55.6415 138.73L56.607 138.845C57.3809 138.937 57.5686 138.993 57.5525 139.129C57.5186 139.414 57.9609 139.806 58.3701 139.855C58.6188 139.885 58.8877 139.809 59.1284 139.641C59.4843 139.392 59.4912 139.373 59.2763 139.229C58.808 138.916 58.037 138.038 57.7822 137.528C57.2981 136.559 57.7472 135.659 58.9253 135.237C59.4542 135.048 59.6838 135.042 61.1013 135.187C61.973 135.276 62.8612 135.411 63.0751 135.487ZM59.8312 136.783C59.5036 136.853 59.5547 137.085 59.9939 137.521C60.696 138.219 61.9502 138.192 62.5124 137.466C62.6396 137.302 62.6411 137.224 62.5188 137.135C62.3372 137.001 60.148 136.715 59.8312 136.783Z" fill="#C67A6C"/>
<path fill-rule="evenodd" clip-rule="evenodd" d="M83.9693 95.8517C84.7183 96.3036 85.1412 96.878 85.5956 98.0616C86.3213 99.9513 86.4584 102.305 86.0433 105.747C85.73 108.345 85.4486 109.667 84.6924 112.093C83.4476 116.087 81.2699 119.424 77.7754 122.695L76.5594 123.832L76.8003 124.408C77.0569 125.021 78.6492 130.355 79.0754 132.029C80.0651 135.916 78.9108 139.596 75.7056 142.771C72.6411 145.806 68.2728 147.63 63.4023 147.906C61.3528 148.023 58.3505 147.666 56.3855 147.071C50.737 145.363 46.3354 141.6 44.4729 136.886C43.3593 134.068 43.3461 131.352 44.4341 128.878C44.8746 127.876 47.8815 122.589 48.7461 121.296L49.2276 120.576L48.3171 119.178C47.1321 117.357 46.3487 115.847 45.5914 113.923C44.0965 110.125 43.7252 106.86 44.2047 101.73C44.5086 98.4793 44.8145 97.0262 45.5867 95.1667C46.4211 93.1569 47.4226 92.008 48.6672 91.6331C49.2416 91.46 49.4871 91.4449 49.936 91.5547C52.1182 92.0887 54.1436 94.9838 55.5329 99.5547C56.3134 102.123 56.9169 105.889 56.9681 108.51C56.9922 109.737 56.4188 113.923 56.1143 114.746C56.0195 115.002 55.9541 115.213 55.9689 115.215C55.9836 115.217 56.5044 115.021 57.1261 114.781C58.3533 114.306 59.8765 113.943 61.2076 113.808C62.4561 113.681 65.4462 114.047 66.5829 114.466C67.9515 114.97 69.1883 115.6 70.2426 116.331C71.3377 117.091 71.2718 117.128 71.2318 115.774C71.1976 114.616 71.5864 111.372 71.8961 110.231C73.7643 103.344 78.115 96.7223 81.4657 95.6649C82.4974 95.3393 83.2079 95.3924 83.9693 95.8517ZM81.8934 97.3566C79.3461 98.4248 75.894 103.807 74.0111 109.644C73.2363 112.046 72.9731 114.94 73.2546 117.958C73.3436 118.913 73.3684 118.969 74.109 119.923C74.5286 120.463 75.0492 121.188 75.266 121.534L75.6603 122.162L76 121.873C76.8817 121.123 79 118.763 79.8517 117.582C82.2127 114.308 83.6122 110.373 84.1961 105.368C84.6358 101.599 84.2748 98.6438 83.2304 97.4638C82.8821 97.0702 82.6253 97.0496 81.8934 97.3566ZM48.9499 93.3841C47.427 94.4471 46.1062 98.6518 45.9335 102.987C45.7814 106.803 46.0778 109.554 46.9209 112.151C47.5992 114.241 49.0447 117.131 50.2462 118.799L50.4986 119.15L51.0168 118.662C51.3017 118.394 51.9827 117.81 52.5299 117.364C53.4912 116.581 53.5358 116.522 53.841 115.633C54.502 113.709 54.6907 112.884 54.9334 110.861C55.2055 108.593 55.165 107.281 54.7367 104.492C53.9851 99.5988 52.1388 95.0496 50.3361 93.6492C49.6631 93.1264 49.3929 93.0748 48.9499 93.3841ZM61.6439 115.491C57.6215 115.76 53.4314 118.181 50.7007 121.814C49.7496 123.079 46.392 128.923 45.9951 130.004C45.3914 131.648 45.3845 133.773 45.977 135.587C47.4274 140.027 51.236 143.56 56.4664 145.317C57.6656 145.719 58.14 145.817 60.0017 146.044C61.8047 146.263 62.37 146.289 63.5015 146.201C67.9786 145.853 71.892 144.127 74.5558 141.324C76.2587 139.533 77.0334 138.09 77.3866 136.052C77.7023 134.229 77.5864 133.444 76.4013 129.384C75.1396 125.06 75.0023 124.691 74.0279 123.002C72.1001 119.661 68.9965 117.025 65.7643 115.984C64.7394 115.653 62.7588 115.417 61.6439 115.491ZM70.1953 128.567C70.9259 128.968 71.1733 129.489 71.0177 130.296C70.9236 130.785 70.8126 130.999 70.5508 131.195C69.5632 131.935 68.3408 131.76 67.6087 130.774C67.2362 130.272 67.3054 129.393 67.7584 128.874C68.0613 128.528 68.9525 128.199 69.4329 128.256C69.5721 128.273 69.9152 128.413 70.1953 128.567ZM55.8975 126.865C56.5682 127.234 56.849 127.778 56.7596 128.535C56.7046 129 56.615 129.182 56.3175 129.43C55.301 130.278 53.8282 130.037 53.2481 128.927C52.9739 128.403 53.0688 127.621 53.4606 127.173C53.7635 126.827 54.6547 126.498 55.1351 126.555C55.2743 126.571 55.6174 126.711 55.8975 126.865ZM73.0009 134.449C73.7387 134.757 74.11 135.213 74.0478 135.736C73.9033 136.95 71.1779 137.091 70.1571 135.937C69.7261 135.45 69.7251 135.079 70.1535 134.696C70.777 134.139 72.0031 134.033 73.0009 134.449ZM51.8087 131.863C52.3428 132.046 52.6657 132.273 52.9243 132.647C53.2499 133.118 53.1611 133.479 52.6285 133.851C51.3743 134.727 48.7501 133.949 48.8934 132.745C48.9577 132.205 49.4292 131.861 50.2668 131.742C50.9661 131.644 51.2299 131.664 51.8087 131.863ZM63.0751 135.487C64.0835 135.847 64.6562 136.511 64.6622 137.327C64.6653 137.749 64.5926 137.936 64.2822 138.304C63.9052 138.752 63.164 139.276 62.5107 139.558L62.18 139.701L62.4807 140.04C62.6659 140.25 62.9203 140.397 63.1429 140.423C63.5336 140.47 64.1008 140.174 64.1325 139.908C64.148 139.777 64.3552 139.767 65.1177 139.858L66.0832 139.973L65.9617 140.367C65.3914 142.22 62.6707 142.72 61.155 141.25L60.69 140.799L60.1322 141.129C58.3138 142.202 55.7865 141.077 55.667 139.142L55.6415 138.73L56.607 138.845C57.3809 138.937 57.5686 138.993 57.5525 139.129C57.5186 139.414 57.9609 139.806 58.3701 139.855C58.6188 139.885 58.8877 139.809 59.1284 139.641C59.4843 139.392 59.4912 139.373 59.2763 139.229C58.808 138.916 58.037 138.038 57.7822 137.528C57.2981 136.559 57.7472 135.659 58.9253 135.237C59.4542 135.048 59.6838 135.042 61.1013 135.187C61.973 135.276 62.8612 135.411 63.0751 135.487ZM59.8312 136.783C59.5036 136.853 59.5547 137.085 59.9939 137.521C60.696 138.219 61.9502 138.192 62.5124 137.466C62.6396 137.302 62.6411 137.224 62.5188 137.135C62.3372 137.001 60.148 136.715 59.8312 136.783Z" stroke="#C67A6C" mask="url(#path-2-outside-1)"/>
<path fill-rule="evenodd" clip-rule="evenodd" d="M111.885 52.5487C101.366 55.528 95.4555 65.1949 95.3962 79.515C95.3794 83.6232 95.6103 85.3437 96.3719 86.7649C97.5432 88.9534 100.375 90.8298 102.496 90.8245C103.671 90.8216 104.315 91.3617 105.465 93.3127C107.183 96.2282 110.292 98.8259 114.126 100.549C116.366 101.556 117.932 101.778 122.793 101.777C128.163 101.777 129.06 101.62 132.249 100.129C135.757 98.4891 139.693 94.868 140.91 92.1605C141.357 91.1655 142.112 90.726 143.771 90.4962C148.168 89.8873 150.42 86.2732 150.395 79.8632C150.345 66.9259 144.766 56.7115 135.869 53.2665C132.946 52.1343 131.302 51.9383 123.729 51.8156C117.178 51.7101 114.193 51.8945 111.885 52.5487ZM134.607 56.096C140.313 58.2329 144.233 62.9984 146.04 69.9979C148.212 78.4066 147.78 85.5367 145.023 86.8106C144.262 87.1623 143.542 87.3448 143.423 87.2165C143.304 87.0889 143.442 85.3245 143.728 83.2965C144.338 78.9818 143.893 73.0066 142.621 68.4276C141.566 64.6319 140.515 63.434 139.307 64.6549C138.619 65.3509 138.642 65.8101 139.481 68.0072C140.219 69.9405 140.462 72.3923 140.491 78.2064C140.527 85.2626 140.417 86.1044 139.083 88.9875C136.1 95.4318 130.878 98.7229 123.469 98.8281C115.247 98.945 109.674 95.7224 106.694 89.1294C104.598 84.4901 104.107 77.5433 105.451 71.5385C106.792 65.549 106.79 64.4463 105.432 64.4516C104.626 64.4547 104.01 65.2361 103.195 67.295C102.24 69.701 102.072 71.4541 102.091 78.7803C102.115 88.0098 101.848 88.7791 99.6058 85.9422C98.632 84.7106 98.4256 83.6489 98.4107 79.8009C98.3921 74.9881 99.8126 67.9783 101.461 64.7499C103.946 59.8808 109.129 56.1341 114.829 55.0852C119.953 54.1424 130.881 54.701 134.607 56.096ZM112.062 70.6948C110.266 71.9672 110.39 74.6116 112.304 75.8589C113.631 76.724 113.941 76.737 115.271 75.9846C117.314 74.8292 117.601 71.9592 115.798 70.7024C114.189 69.581 113.635 69.5797 112.062 70.6948ZM129.454 70.8786C128.834 71.5047 128.33 72.5271 128.332 73.1508C128.335 73.7744 128.847 74.793 129.471 75.4142C130.93 76.8668 132.561 76.8429 134.04 75.3472C134.903 74.4753 135.117 73.7589 134.846 72.651C134.139 69.7526 131.443 68.8667 129.454 70.8786ZM119.593 80.7763C118.673 81.4568 118.617 81.7779 119.199 83.0457C119.571 83.8584 120.136 84.5218 120.454 84.5206C120.771 84.5193 121.034 85.265 121.037 86.1778C121.044 87.9705 118.865 90.1964 117.097 90.2032C116.56 90.2053 115.448 89.6806 114.626 89.0375C113.48 88.1404 113.131 87.3662 113.125 85.7112C113.115 83.1367 111.881 81.7587 110.571 82.858C110.106 83.2481 109.729 84.3093 109.733 85.2169C109.756 91.2669 115.947 94.9634 120.918 91.8955C122.744 90.7687 122.756 90.7687 124.591 91.8813C126.926 93.2976 129.881 93.2947 132.183 91.874C134.298 90.5686 135.017 89.3644 135.468 86.3759C135.859 83.7822 134.815 81.9249 133.298 82.5165C132.585 82.7937 132.328 83.5487 132.335 85.3443C132.342 87.3156 132.054 88.0248 130.86 88.9746C130.044 89.6241 128.936 90.1574 128.398 90.1594C126.854 90.1654 124.434 87.9563 124.429 86.536C124.426 85.8279 124.931 84.7839 125.55 84.2174C126.897 82.9847 127.021 80.7844 125.771 80.3084C124.173 79.7 120.691 79.9641 119.593 80.7763Z" fill="#FF8A75"/>
<path fill-rule="evenodd" clip-rule="evenodd" d="M16.1844 23.8211C13.498 29.2165 13.5002 44.878 16.1896 55.46C18.3226 63.8514 21.6117 69.133 27.4395 73.5228C34.2759 78.6721 39.2339 79.9201 48.7732 78.8907C55.6472 78.1488 56.6454 77.8404 61.0051 75.1135C73.1498 67.5168 76.8666 55.9833 73.7074 35.6939C72.2442 26.2983 68.9465 17.2371 66.7789 16.655C65.0922 16.2024 61.6472 18.5709 57.9455 22.7289L54.7807 26.2826L48.6593 26.179C44.6224 26.111 40.6099 26.5444 36.8791 27.4507C30.6959 28.9532 31.1463 29.0538 24.8762 24.7737C19.9685 21.4237 17.5121 21.1548 16.1844 23.8211ZM25.2159 29.9311L30.5993 33.6308L34.2467 32.4015C38.9311 30.8241 47.1518 29.9188 52.0868 30.4379L55.9506 30.8449L60.534 26.0091L65.1173 21.1733L66.2961 23.3553C66.9453 24.5553 68.2152 28.6935 69.1194 32.5506C70.8071 39.7495 71.2317 49.734 70.1307 56.3022C69.0692 62.6326 62.4423 70.4974 55.8435 73.2567C51.4775 75.0834 43.7193 75.7742 39.2255 74.7377C32.8369 73.264 27.6748 69.6075 24.024 63.9713L20.8278 59.0371L19.3888 46.0139C18.4557 37.5701 18.163 31.8164 18.5567 29.6487C18.8897 27.8099 19.314 26.2893 19.4981 26.269C19.6821 26.2487 22.2553 27.8966 25.2159 29.9311ZM29.4195 46.622C28.1509 48.4108 28.3214 51.5644 29.7498 52.7292C30.2991 53.1772 31.7925 53.4284 33.0683 53.2874C35.9094 52.9735 37.0522 51.6425 36.7592 48.9911C36.3269 45.0787 31.5964 43.552 29.4195 46.622ZM54.1122 43.8934C52.8435 45.6823 53.014 48.8359 54.4424 50.0007C54.9918 50.4486 56.4851 50.6998 57.7609 50.5589C60.602 50.2449 61.7448 48.9139 61.4518 46.2626C61.0195 42.3502 56.289 40.8235 54.1122 43.8934ZM41.9574 55.0174C41.2905 56.0492 41.4166 56.5254 42.654 57.6412C43.8806 58.7473 44.0482 59.367 43.5468 60.9292C42.6366 63.7621 40.2479 64.5379 37.4826 62.8996C36.2143 62.148 34.6583 61.59 34.0237 61.6601C32.2309 61.8582 32.9511 64.3938 35.3139 66.2007C38.0407 68.2856 43.2068 67.9213 45.3199 65.495C46.7112 63.8977 46.7636 63.8919 48.4701 65.1469C51.062 67.0533 56.183 66.2809 58.3888 63.6509C61.6613 59.7484 59.4249 56.8509 55.9616 60.507C53.707 62.8872 52.865 63.0743 50.4539 61.7275C48.7087 60.7535 47.6598 57.8411 49.0007 57.6929C50.1358 57.5675 50.3832 55.0907 49.3611 54.0868C48.051 52.8003 42.9794 53.437 41.9574 55.0174Z" fill="#FF6043"/>
</svg>
