<svg width="40" height="51" viewBox="0 0 40 51" fill="none" xmlns="http://www.w3.org/2000/svg">
<circle cx="20" cy="20" r="20" fill="#3C83EE"/>
<path d="M20 51L33.8564 34.5H6.14359L20 51Z" fill="#3C83EE"/>
<path d="M32 20.0036L28.5143 18.6737C28.2171 17.3203 27.4743 16.5436 27.4743 16.5436C27.0296 16.0847 26.5014 15.7207 25.92 15.4723C25.3385 15.224 24.7152 15.0961 24.0857 15.0961C23.4562 15.0961 22.8329 15.224 22.2515 15.4723C21.67 15.7207 21.1418 16.0847 20.6971 16.5436L19.0057 18.2854L11.4286 10C10.2857 14.7076 11.4286 19.4152 14.2286 23.2048L8 29.4188C8 29.4188 18.16 31.7726 24.08 27.0062C27.2343 24.4641 27.9429 22.9812 28.3886 21.4159L32 20.0036ZM25.9543 20.2626C25.5086 20.7216 24.7771 20.7216 24.3314 20.2626C24.2255 20.1537 24.1414 20.0244 24.0841 19.882C24.0267 19.7396 23.9972 19.587 23.9972 19.4328C23.9972 19.2787 24.0267 19.1261 24.0841 18.9837C24.1414 18.8413 24.2255 18.712 24.3314 18.6031C24.7771 18.1441 25.5086 18.1441 25.9543 18.6031C26.4 19.0621 26.4 19.8036 25.9543 20.2626Z" fill="#FAFAFA"/>
</svg>
